# xmcd
#
# Track frame offsets:
#	150
#	14316
#	27089
#	40791
#	56221
#	68756
#	84882
#	100154
#	113090
#	130558
#	146817
#	160343
#
# Disc length: 2372 seconds
#
# Revision: 0
# Processed by: cddbd v1.4PL0 Copyright (c) Steve Scherf et al.
# Submitted via: dBpowerAMP V4.0
#
DISCID=9409420c
DTITLE=Denis Champoux - Ma collection de chansons vol 4
DYEAR=1900
DGENRE=
TTITLE0=Qui est-il ce chanteur
TTITLE1=Tu me tournes le dos
TTITLE2=A toi qui vient de naitre
TTITLE3=Vous vous etre tant aimes
TTITLE4=Ta promesse
TTITLE5=Le sourire le plus triste
TTITLE6=La hache de guerre
TTITLE7=Guide mes pas
TTITLE8=Regarde l'etoile
TTITLE9=Emporte-moi sur ton aile
TTITLE10=Les veilles chansons<
TTITLE11=Donne-moi ta guitare
EXTD=
EXTT0=
EXTT1=
EXTT2=
EXTT3=
EXTT4=
EXTT5=
EXTT6=
EXTT7=
EXTT8=
EXTT9=
EXTT10=
EXTT11=
PLAYORDER=
